<svg width="1196" height="171" viewBox="0 0 1196 171" fill="none" xmlns="http://www.w3.org/2000/svg">
<path fill-rule="evenodd" clip-rule="evenodd" d="M82.0681 167.08L86.9333 127.48H55.4788L50.557 167.08H24.8601L29.7818 127.48H0V101.42H33.0207L37.0824 68.74H7.04V42.68H40.3212L45.243 3.08H70.9399L66.0182 42.68H97.3516L102.217 3.08H127.912L123.047 42.68H152.78V68.74H119.845L115.83 101.42H145.74V127.48H112.628L107.763 167.08H82.0681ZM108.205 122.48H140.74V106.42H110.178L115.422 63.74H147.78V47.68H117.395L122.26 8.08H106.64L101.775 47.68H60.3583L65.28 8.08H49.66L44.7383 47.68H12.04V63.74H42.7423L37.4377 106.42H5V122.48H35.4417L30.52 162.08H46.14L51.0617 122.48H92.5852L87.72 162.08H103.34L108.205 122.48ZM94.5582 106.42L99.8018 63.74H58.3623L53.0577 106.42H94.5582ZM90.1349 101.42L94.1499 68.74H62.7793L58.7176 101.42H90.1349ZM267.108 3.08H320.668V167.08H267.108V107.02H217.708V167.08H164.148V3.08H217.708V60.94H267.108V3.08ZM272.108 65.94H212.708V8.08H169.148V162.08H212.708V102.02H272.108V162.08H315.668V8.08H272.108V65.94ZM341.394 167.08V3.08H394.954V167.08H341.394ZM437.239 165.367L437.203 165.357C425.266 162.033 415.264 157.734 407.353 152.355L403.897 150.005L422.259 108.76L427.155 111.885C433.634 116.021 441.148 119.514 449.736 122.334C458.368 124.974 466.88 126.28 475.284 126.28C481.018 126.28 485.324 125.789 488.369 124.949C491.605 123.904 493.276 122.793 494.039 121.961L494.044 121.955L494.05 121.949C494.996 120.924 495.364 119.921 495.364 118.74C495.364 117.099 494.773 115.829 492.84 114.598C490.192 112.913 486.544 111.398 481.739 110.162C476.693 108.865 471.048 107.562 464.8 106.254L464.788 106.252L464.777 106.249C458.439 104.891 452.039 103.158 445.576 101.054L445.56 101.049L445.543 101.043C439.031 98.8727 433.018 96.0669 427.524 92.6132L427.481 92.5863L427.439 92.5585C421.684 88.7769 416.986 83.912 413.378 78.0072L413.362 77.9814L413.347 77.9554C409.542 71.5561 407.804 63.7882 407.804 54.94C407.804 44.742 410.574 35.4118 416.124 27.0865L416.143 27.0585L416.162 27.0308C421.919 18.6417 430.345 12.098 441.115 7.25916C452.068 2.33837 465.432 0 481.004 0C491.5 0 501.782 1.21567 511.84 3.65049C522.074 5.94552 531.272 9.40945 539.383 14.0891L541.717 15.4358V3.08H689.657V47.62H642.577V167.08H589.017V47.62H541.717V19.8188L525.96 57.7903L521.089 55.1595C514.06 51.3643 507.166 48.5873 500.402 46.7928L500.356 46.7807L500.311 46.7676C493.523 44.8283 487.019 43.88 480.784 43.88C475.069 43.88 470.87 44.5163 467.958 45.5644L467.874 45.5948L467.788 45.6221C464.646 46.6276 463.043 47.8125 462.276 48.7891C461.363 49.9511 460.924 51.207 460.924 52.74C460.924 54.2286 461.448 55.4392 463.211 56.6477C465.878 58.2021 469.513 59.6335 474.251 60.8573C479.491 62.0214 485.167 63.2585 491.28 64.5685C497.75 65.9231 504.143 67.652 510.459 69.7545C517.149 71.7836 523.275 74.6039 528.809 78.2341C534.62 81.897 539.271 86.8062 542.734 92.883C546.535 99.1394 548.264 106.759 548.264 115.44C548.264 125.406 545.387 134.656 539.72 143.081C534.104 151.5 525.736 158.054 514.969 162.894C504.144 167.827 490.767 170.16 475.064 170.16C462.04 170.16 449.439 168.569 437.275 165.376L437.239 165.367ZM512.904 158.34C523.024 153.793 530.578 147.78 535.564 140.3C540.698 132.673 543.264 124.387 543.264 115.44C543.264 107.373 541.651 100.7 538.424 95.42C535.344 89.9933 531.238 85.6667 526.104 82.44C520.971 79.0667 515.251 76.4267 508.944 74.52C502.784 72.4667 496.551 70.78 490.244 69.46C484.084 68.14 478.364 66.8933 473.084 65.72C467.951 64.4 463.771 62.7867 460.544 60.88C457.464 58.8267 455.924 56.1133 455.924 52.74C455.924 50.1 456.731 47.7533 458.344 45.7C459.958 43.6467 462.598 42.0333 466.264 40.86C469.931 39.54 474.771 38.88 480.784 38.88C487.531 38.88 494.498 39.9067 501.684 41.96C507.41 43.479 513.182 45.6496 519 48.4719C520.485 49.1922 521.973 49.9549 523.464 50.76L536.884 18.42C529.258 14.02 520.531 10.72 510.704 8.52001C501.024 6.17334 491.124 5 481.004 5C465.898 5 453.284 7.27333 443.164 11.82C433.044 16.3667 425.418 22.38 420.284 29.86C415.298 37.34 412.804 45.7 412.804 54.94C412.804 63.1533 414.418 69.9733 417.644 75.4C420.871 80.68 425.051 85.0067 430.184 88.38C435.318 91.6067 440.964 94.2467 447.124 96.3C453.431 98.3533 459.664 100.04 465.824 101.36C472.131 102.68 477.851 104 482.984 105.32C488.118 106.64 492.298 108.327 495.524 110.38C498.751 112.433 500.364 115.22 500.364 118.74C500.364 121.233 499.484 123.433 497.724 125.34C496.111 127.1 493.471 128.567 489.804 129.74C486.138 130.767 481.298 131.28 475.284 131.28C466.338 131.28 457.318 129.887 448.224 127.1C441.092 124.762 434.613 121.957 428.786 118.687C427.303 117.855 425.863 116.992 424.464 116.1L410.164 148.22C417.498 153.207 426.958 157.313 438.544 160.54C450.278 163.62 462.451 165.16 475.064 165.16C490.318 165.16 502.931 162.887 512.904 158.34ZM594.017 42.62V162.08H637.577V42.62H684.657V8.08H546.717V42.62H594.017ZM711.587 146.138L711.552 146.104C703.454 138.318 697.136 129.27 692.62 118.991C688.062 108.619 685.817 97.2922 685.817 85.08C685.817 72.8678 688.062 61.5411 692.62 51.1686C697.14 40.8802 703.469 31.8919 711.588 24.2411C719.859 16.4388 729.52 10.4496 740.52 6.26652C751.558 2.06896 763.534 0 776.397 0C789.395 0 801.379 2.06505 812.288 6.27168C823.282 10.4543 832.873 16.4448 841.003 24.2564C849.107 31.8967 855.425 40.87 859.942 51.1395C864.655 61.518 866.977 72.8555 866.977 85.08C866.977 97.3109 864.652 108.716 859.947 119.229C855.427 129.51 849.101 138.492 840.986 146.139C832.856 153.8 823.27 159.71 812.289 163.888C801.379 168.095 789.395 170.16 776.397 170.16C763.534 170.16 751.558 168.091 740.52 163.893C729.54 159.718 719.891 153.815 711.623 146.171L711.587 146.138ZM810.497 159.22C820.911 155.26 829.931 149.687 837.557 142.5C845.184 135.313 851.124 126.88 855.377 117.2C859.777 107.373 861.977 96.6667 861.977 85.08C861.977 73.4933 859.777 62.86 855.377 53.18C851.124 43.5 845.184 35.0667 837.557 27.88C829.931 20.5467 820.911 14.9 810.497 10.94C800.231 6.98 788.864 5 776.397 5C764.077 5 752.711 6.98 742.297 10.94C731.884 14.9 722.791 20.5467 715.017 27.88C707.391 35.0667 701.451 43.5 697.197 53.18C692.944 62.86 690.817 73.4933 690.817 85.08C690.817 96.6667 692.944 107.3 697.197 116.98C701.451 126.66 707.391 135.167 715.017 142.5C722.791 149.687 731.884 155.26 742.297 159.22C752.711 163.18 764.077 165.16 776.397 165.16C788.864 165.16 800.231 163.18 810.497 159.22ZM790.797 121.367L790.82 121.358C795.325 119.556 799.121 117.013 802.273 113.734L802.276 113.732C805.594 110.286 808.174 106.18 810.001 101.351L810.022 101.296L810.044 101.241C811.973 96.4827 812.977 91.1176 812.977 85.08C812.977 78.8769 811.967 73.5346 810.062 68.9631L810.03 68.8868L810.001 68.8095C808.179 63.9946 805.617 59.9905 802.342 56.7155L802.274 56.6476L802.209 56.577C799.059 53.175 795.282 50.5871 790.82 48.8024L790.797 48.793L790.774 48.7834C786.442 46.9998 781.669 46.08 776.397 46.08C771.137 46.08 766.279 46.9962 761.778 48.7928C757.454 50.5772 753.636 53.1828 750.299 56.6482C747.127 59.9478 744.53 64.0001 742.545 68.8829C740.763 73.4795 739.817 78.8515 739.817 85.08C739.817 91.1354 740.755 96.5218 742.554 101.298C744.53 106.154 747.121 110.28 750.301 113.733C753.626 117.04 757.441 119.578 761.778 121.367C766.279 123.164 771.137 124.08 776.397 124.08C781.669 124.08 786.442 123.16 790.774 121.377L790.797 121.367ZM759.897 126C754.911 123.947 750.511 121.013 746.697 117.2C743.031 113.24 740.097 108.547 737.897 103.12C735.844 97.6933 734.817 91.68 734.817 85.08C734.817 78.3333 735.844 72.32 737.897 67.04C740.097 61.6133 743.031 56.9933 746.697 53.18C750.511 49.22 754.911 46.2133 759.897 44.16C765.031 42.1067 770.531 41.08 776.397 41.08C782.264 41.08 787.691 42.1067 792.677 44.16C797.811 46.2133 802.211 49.22 805.877 53.18C809.691 56.9933 812.624 61.6133 814.677 67.04C816.877 72.32 817.977 78.3333 817.977 85.08C817.977 91.68 816.877 97.6933 814.677 103.12C812.624 108.547 809.691 113.24 805.877 117.2C802.211 121.013 797.811 123.947 792.677 126C787.691 128.053 782.264 129.08 776.397 129.08C770.531 129.08 765.031 128.053 759.897 126ZM879.792 167.08V3.08H955.192C969.788 3.08 982.617 5.43413 993.527 10.3327C1004.59 15.2339 1013.3 22.4372 1019.44 31.9736C1025.62 41.4111 1028.61 52.5127 1028.61 65.06C1028.61 77.4806 1025.61 88.5098 1019.43 97.9401L1019.42 97.9569L1019.41 97.9735C1014.67 105.093 1008.41 110.903 1000.74 115.429L1036.19 167.08H977.411L949.489 126.16H933.352V167.08H879.792ZM928.352 121.16H952.13L980.052 162.08H1026.69L993.457 113.653C994.996 112.912 996.478 112.127 997.904 111.296C1005.12 107.093 1010.9 101.728 1015.25 95.2C1020.83 86.6933 1023.61 76.6467 1023.61 65.06C1023.61 53.3267 1020.83 43.2067 1015.25 34.7C1009.68 26.0467 1001.76 19.4467 991.492 14.9C981.372 10.3533 969.272 8.08 955.192 8.08H884.792V162.08H928.352V121.16ZM952.552 87.5C961.645 87.5 968.392 85.52 972.792 81.56C977.339 77.6 979.612 72.1 979.612 65.06C979.612 57.8733 977.339 52.3 972.792 48.34C968.392 44.38 961.645 42.4 952.552 42.4H928.352V87.5H952.552ZM933.352 82.5H952.552C961.048 82.5 966.349 80.6317 969.447 77.8435L969.477 77.8163L969.508 77.7896C972.778 74.9418 974.612 70.9218 974.612 65.06C974.612 59.0147 972.754 54.9376 969.508 52.1104L969.477 52.0837L969.447 52.0565C966.349 49.2683 961.048 47.4 952.552 47.4H933.352V82.5ZM1079.44 167.08V107.612L1016.88 3.08H1074.52L1108.12 59.4419L1141.88 3.08H1195.76L1133 108.292V167.08H1079.44ZM1128 106.914L1186.96 8.08H1144.72L1108.11 69.1885L1071.68 8.08H1025.7L1084.44 106.23V162.08H1128V106.914ZM346.394 162.08H389.954V8.08H346.394V162.08Z" fill="black"/>
</svg>
