<svg width="878" height="172" viewBox="0 0 878 172" fill="none" xmlns="http://www.w3.org/2000/svg">
<path fill-rule="evenodd" clip-rule="evenodd" d="M83.0081 168L87.8732 128.4H56.4187L51.497 168H25.8L30.7218 128.4H0.939941V102.34H33.9606L38.0223 69.6599H7.97994V43.5999H41.2612L46.1829 3.99992H71.8798L66.9581 43.5999H98.2915L103.157 3.99992H128.852L123.987 43.5999H153.72V69.6599H120.785L116.77 102.34H146.68V128.4H113.568L108.703 168H83.0081ZM109.145 123.4H141.68V107.34H111.118L116.362 64.6599H148.72V48.5999H118.335L123.2 8.99992H107.58L102.715 48.5999H61.2982L66.2199 8.99992H50.5999L45.6782 48.5999H12.9799V64.6599H43.6822L38.3777 107.34H5.93994V123.4H36.3817L31.4599 163H47.0799L52.0017 123.4H93.5251L88.66 163H104.28L109.145 123.4ZM95.4982 107.34L100.742 64.6599H59.3022L53.9977 107.34H95.4982ZM91.0749 102.34L95.0898 69.6599H63.7192L59.6576 102.34H91.0749ZM165.087 168V3.99992H208.298L268.927 77.1946V3.99992H321.607V168H278.397L217.767 94.8052V168H165.087ZM212.767 80.9308L280.747 163H316.607V8.99992H273.927V91.0691L205.947 8.99992H170.087V163H212.767V80.9308ZM390.454 68.6199H458.874V101.18H390.454V129.34H470.974V163H347.334V8.99992H468.114V42.6599H390.454V68.6199ZM395.454 47.6599H473.114V3.99992H342.334V168H475.974V124.34H395.454V106.18H463.874V63.6199H395.454V47.6599ZM527.423 168L474.24 3.99992H529.664L557.098 91.0413L585.968 3.99992H633.29L660.811 91.7768L689.345 3.99992H741.435L688.253 168H634.309L608.374 85.5537L581.319 168H527.423ZM608.475 69.2108L637.978 163H684.618L734.558 8.99992H692.978L660.725 108.215L629.618 8.99992H589.578L556.977 107.289L525.998 8.99992H481.118L531.058 163H577.698L608.475 69.2108ZM766.46 166.287L766.424 166.277C754.487 162.952 744.485 158.654 736.574 153.275L733.118 150.924L751.48 109.68L756.376 112.805C762.855 116.941 770.369 120.434 778.956 123.253C787.589 125.894 796.101 127.2 804.506 127.2C810.239 127.2 814.545 126.709 817.59 125.869C820.826 124.824 822.497 123.713 823.26 122.881L823.266 122.875L823.272 122.869C824.217 121.844 824.586 120.841 824.586 119.66C824.586 118.019 823.995 116.749 822.061 115.518C819.413 113.833 815.766 112.318 810.96 111.082C805.914 109.785 800.269 108.482 794.021 107.174L794.01 107.171L793.998 107.169C787.66 105.811 781.26 104.078 774.798 101.974L774.781 101.969L774.764 101.963C768.252 99.7926 762.239 96.9868 756.745 93.5331L756.702 93.5062L756.66 93.4785C750.905 89.6969 746.208 84.8319 742.599 78.9272L742.583 78.9013L742.568 78.8753C738.763 72.476 737.026 64.7081 737.026 55.8599C737.026 45.6619 739.795 36.3317 745.345 28.0064L745.364 27.9784L745.383 27.9507C751.14 19.5617 759.566 13.018 770.336 8.17908C781.289 3.25829 794.653 0.919922 810.226 0.919922C820.721 0.919922 831.003 2.13556 841.061 4.57032C851.294 6.86535 860.493 10.3293 868.604 15.009L872.406 17.2023L855.182 58.7102L850.31 56.0794C843.282 52.2842 836.387 49.5072 829.623 47.7127L829.578 47.7006L829.532 47.6876C822.744 45.7483 816.241 44.7999 810.006 44.7999C804.291 44.7999 800.091 45.4362 797.179 46.4844L797.095 46.5147L797.009 46.5421C793.867 47.5475 792.265 48.7324 791.497 49.709C790.584 50.871 790.146 52.1269 790.146 53.6599C790.146 55.1485 790.669 56.3591 792.432 57.5676C795.099 59.1219 798.734 60.5534 803.472 61.7771C808.712 62.9415 814.39 64.1787 820.504 65.489C826.973 66.8435 833.365 68.5722 839.68 70.6743C846.37 72.7034 852.496 75.5238 858.03 79.154C863.842 82.8169 868.492 87.7261 871.955 93.8029C875.756 100.059 877.486 107.679 877.486 116.36C877.486 126.326 874.609 135.576 868.941 144.001C863.325 152.421 854.956 158.975 844.188 163.815C833.363 168.747 819.987 171.08 804.286 171.08C791.261 171.08 778.66 169.489 766.496 166.296L766.46 166.287ZM842.126 159.26C852.246 154.713 859.799 148.7 864.786 141.22C869.919 133.593 872.486 125.307 872.486 116.36C872.486 108.293 870.872 101.62 867.646 96.3399C864.566 90.9133 860.459 86.5866 855.326 83.3599C850.192 79.9866 844.472 77.3466 838.166 75.4399C832.006 73.3866 825.772 71.6999 819.466 70.3799C813.306 69.0599 807.586 67.8133 802.306 66.6399C797.172 65.3199 792.992 63.7066 789.766 61.7999C786.686 59.7466 785.146 57.0333 785.146 53.6599C785.146 51.0199 785.952 48.6733 787.566 46.6199C789.179 44.5666 791.819 42.9533 795.486 41.7799C799.152 40.4599 803.992 39.7999 810.006 39.7999C816.752 39.7999 823.719 40.8266 830.906 42.8799C836.631 44.3989 842.403 46.5696 848.222 49.3918C849.707 50.1121 851.195 50.8748 852.686 51.6799L866.106 19.3399C858.479 14.9399 849.752 11.6399 839.926 9.43993C830.246 7.09326 820.346 5.91992 810.226 5.91992C795.119 5.91992 782.506 8.19326 772.386 12.7399C762.266 17.2866 754.639 23.2999 749.506 30.7799C744.519 38.2599 742.026 46.6199 742.026 55.8599C742.026 64.0733 743.639 70.8933 746.866 76.3199C750.092 81.5999 754.272 85.9266 759.406 89.2999C764.539 92.5266 770.186 95.1666 776.346 97.2199C782.652 99.2733 788.886 100.96 795.046 102.28C801.352 103.6 807.072 104.92 812.206 106.24C817.339 107.56 821.519 109.247 824.746 111.3C827.972 113.353 829.586 116.14 829.586 119.66C829.586 122.153 828.706 124.353 826.946 126.26C825.332 128.02 822.692 129.487 819.026 130.66C815.359 131.687 810.519 132.2 804.506 132.2C795.559 132.2 786.539 130.807 777.446 128.02C770.314 125.682 763.834 122.877 758.007 119.607C756.524 118.775 755.084 117.912 753.686 117.02L739.386 149.14C746.719 154.127 756.179 158.233 767.766 161.46C779.499 164.54 791.672 166.08 804.286 166.08C819.539 166.08 832.152 163.807 842.126 159.26Z" fill="black"/>
</svg>
