<svg width="1290" height="172" viewBox="0 0 1290 172" fill="none" xmlns="http://www.w3.org/2000/svg">
<path fill-rule="evenodd" clip-rule="evenodd" d="M83.0081 168L87.8732 128.4H56.4187L51.497 168H25.8L30.7218 128.4H0.939941V102.34H33.9606L38.0223 69.6599H7.97994V43.5999H41.2612L46.1829 3.99992H71.8798L66.9581 43.5999H98.2915L103.157 3.99992H128.852L123.987 43.5999H153.72V69.6599H120.785L116.77 102.34H146.68V128.4H113.568L108.703 168H83.0081ZM109.145 123.4H141.68V107.34H111.118L116.362 64.6599H148.72V48.5999H118.335L123.2 8.99992H107.58L102.715 48.5999H61.2982L66.2199 8.99992H50.5999L45.6782 48.5999H12.9799V64.6599H43.6822L38.3777 107.34H5.93994V123.4H36.3817L31.4599 163H47.0799L52.0017 123.4H93.5251L88.66 163H104.28L109.145 123.4ZM95.4982 107.34L100.742 64.6599H59.3022L53.9977 107.34H95.4982ZM91.0749 102.34L95.0898 69.6599H63.7192L59.6576 102.34H91.0749ZM143.935 168L216.329 3.99992H265.742L338.037 167.247V3.99992H413.437C428.034 3.99992 440.863 6.35438 451.774 11.2536C462.836 16.1553 471.543 23.3593 477.69 32.8965C480.538 37.2465 482.708 41.9499 484.22 46.9854V3.99992H632.16V48.5399H585.08V168H531.52V48.5399H484.663C486.133 53.9861 486.857 59.8081 486.857 65.9799C486.857 78.4005 483.857 89.4297 477.679 98.8601L477.668 98.8768L477.657 98.8934C472.91 106.013 466.653 111.823 458.985 116.349L494.432 168H435.655L407.733 127.08H391.597V168H281.986L269.979 138.08H211.436L199.428 168H143.935ZM208.055 133.08H273.36L285.367 163H330.687L262.487 8.99992H219.587L151.607 163H196.047L208.055 133.08ZM240.707 51.719L220.946 100.96H260.469L240.707 51.719ZM253.075 95.9599L240.707 65.1436L228.34 95.9599H253.075ZM386.597 122.08H410.375L438.297 163H484.937L451.702 114.572C453.24 113.832 454.723 113.047 456.149 112.216C463.362 108.013 469.145 102.648 473.497 96.1199C479.07 87.6133 481.857 77.5666 481.857 65.9799C481.857 54.2466 479.07 44.1266 473.497 35.6199C467.923 26.9666 460.003 20.3666 449.737 15.8199C439.617 11.2733 427.517 8.99992 413.437 8.99992H343.037V163H386.597V122.08ZM410.797 88.4199C419.89 88.4199 426.637 86.4399 431.037 82.4799C435.583 78.5199 437.857 73.0199 437.857 65.9799C437.857 58.7933 435.583 53.2199 431.037 49.2599C426.637 45.2999 419.89 43.3199 410.797 43.3199H386.597V88.4199H410.797ZM391.597 83.4199H410.797C419.293 83.4199 424.594 81.5517 427.692 78.7635L427.722 78.7362L427.753 78.7095C431.022 75.8618 432.857 71.8417 432.857 65.9799C432.857 59.9346 430.999 55.8576 427.753 53.0303L427.722 53.0036L427.692 52.9764C424.594 50.1882 419.293 48.3199 410.797 48.3199H391.597V83.4199ZM536.52 43.5399V163H580.08V43.5399H627.16V8.99992H489.22V43.5399H536.52ZM638.388 168V3.99992H691.948V168H638.388ZM759.08 165.04L759.04 165.025C748.199 160.844 738.692 154.932 730.57 147.279L730.552 147.262L730.535 147.245C722.574 139.597 716.333 130.619 711.821 120.351L711.816 120.339L711.81 120.326C707.261 109.815 705.019 98.3505 705.019 85.9999C705.019 73.6577 707.258 62.2622 711.813 51.8867C716.321 41.474 722.563 32.4141 730.535 24.7544L730.552 24.7376L730.57 24.721C738.701 17.0593 748.222 11.2151 759.079 7.17973C770.106 2.98919 782.001 0.919922 794.719 0.919922C809.529 0.919922 822.925 3.51643 834.808 8.83032C846.814 14.1333 856.854 21.81 864.849 31.8439L867.776 35.5168L832.749 67.2076L829.409 63.2782C824.789 57.8427 819.792 53.8117 814.44 51.0701L814.417 51.0586L814.395 51.0469C809.319 48.3821 803.531 46.9999 796.919 46.9999C791.162 46.9999 785.992 47.9354 781.351 49.74C776.726 51.5387 772.795 54.1466 769.501 57.5681C766.333 60.863 763.739 64.9086 761.755 69.7822C759.956 74.5582 759.019 79.9445 759.019 85.9999C759.019 92.0554 759.956 97.4417 761.756 102.218C763.732 107.074 766.323 111.2 769.503 114.652C772.787 117.918 776.716 120.457 781.351 122.26C785.992 124.064 791.162 125 796.919 125C803.531 125 809.319 123.618 814.395 120.953L814.417 120.941L814.44 120.93C819.792 118.188 824.789 114.157 829.409 108.722L832.749 104.792L867.803 136.507L864.825 140.186C856.835 150.056 846.816 157.712 834.848 163.152L834.834 163.158L834.821 163.164C822.934 168.482 809.534 171.08 794.719 171.08C782.016 171.08 770.135 169.089 759.12 165.055L759.08 165.04ZM765.899 118.12C762.232 114.16 759.299 109.467 757.099 104.04C755.046 98.6133 754.019 92.5999 754.019 85.9999C754.019 79.3999 755.046 73.3866 757.099 67.9599C759.299 62.5333 762.232 57.9133 765.899 54.0999C769.712 50.1399 774.259 47.1333 779.539 45.0799C784.819 43.0266 790.612 41.9999 796.919 41.9999C804.252 41.9999 810.852 43.5399 816.719 46.6199C821.643 49.1422 826.224 52.5989 830.46 56.99C831.396 57.961 832.316 58.9776 833.219 60.0399L860.939 34.9599C853.459 25.5733 844.072 18.3866 832.779 13.3999C821.632 8.41326 808.946 5.91992 794.719 5.91992C782.546 5.91992 771.252 7.89992 760.839 11.8599C750.572 15.6733 741.626 21.1733 733.999 28.3599C726.519 35.5466 720.652 44.0533 716.399 53.8799C712.146 63.5599 710.019 74.2666 710.019 85.9999C710.019 97.7333 712.146 108.513 716.399 118.34C720.652 128.02 726.519 136.453 733.999 143.64C741.626 150.827 750.572 156.4 760.839 160.36C771.252 164.173 782.546 166.08 794.719 166.08C808.946 166.08 821.632 163.587 832.779 158.6C844.072 153.467 853.459 146.28 860.939 137.04L833.219 111.96C832.316 113.022 831.396 114.039 830.46 115.01C826.224 119.401 821.643 122.858 816.719 125.38C810.852 128.46 804.252 130 796.919 130C790.612 130 784.819 128.973 779.539 126.92C774.259 124.867 769.712 121.933 765.899 118.12ZM875.361 168V3.99992H928.921V123.46H1002.4V168H875.361ZM923.921 128.46V8.99992H880.361V163H997.401V128.46H923.921ZM1057.76 68.6199H1126.18V101.18H1057.76V129.34H1138.28V163H1014.64V8.99992H1135.42V42.6599H1057.76V68.6199ZM1062.76 47.6599H1140.42V3.99992H1009.64V168H1143.28V124.34H1062.76V106.18H1131.18V63.6199H1062.76V47.6599ZM1178.75 166.287L1178.71 166.277C1166.77 162.952 1156.77 158.654 1148.86 153.275L1145.4 150.924L1163.77 109.68L1168.66 112.805C1175.14 116.941 1182.65 120.434 1191.24 123.254C1199.88 125.894 1208.39 127.2 1216.79 127.2C1222.52 127.2 1226.83 126.709 1229.88 125.869C1233.11 124.824 1234.78 123.713 1235.54 122.881L1235.55 122.875L1235.56 122.869C1236.5 121.844 1236.87 120.841 1236.87 119.66C1236.87 118.019 1236.28 116.749 1234.35 115.518C1231.7 113.833 1228.05 112.318 1223.25 111.082C1218.2 109.785 1212.55 108.482 1206.31 107.174L1206.29 107.171L1206.28 107.169C1199.95 105.811 1193.55 104.078 1187.08 101.974L1187.07 101.969L1187.05 101.963C1180.54 99.7926 1174.52 96.9868 1169.03 93.5331L1168.99 93.5062L1168.94 93.4785C1163.19 89.6968 1158.49 84.8319 1154.88 78.9272L1154.87 78.9013L1154.85 78.8753C1151.05 72.476 1149.31 64.7082 1149.31 55.8599C1149.31 45.6619 1152.08 36.3316 1157.63 28.0064L1157.65 27.9784L1157.67 27.9507C1163.43 19.5617 1171.85 13.018 1182.62 8.17908C1193.57 3.25829 1206.94 0.919922 1222.51 0.919922C1233.01 0.919922 1243.29 2.1355 1253.35 4.57013C1263.58 6.86516 1272.78 10.3292 1280.89 15.009L1284.69 17.2023L1267.47 58.7102L1262.59 56.0794C1255.57 52.2843 1248.67 49.5072 1241.91 47.7127L1241.86 47.7006L1241.82 47.6876C1235.03 45.7483 1228.53 44.7999 1222.29 44.7999C1216.58 44.7999 1212.38 45.4362 1209.46 46.4844L1209.38 46.5147L1209.29 46.5421C1206.15 47.5475 1204.55 48.7324 1203.78 49.709C1202.87 50.8709 1202.43 52.1268 1202.43 53.6599C1202.43 55.1485 1202.95 56.3591 1204.72 57.5676C1207.38 59.122 1211.02 60.5536 1215.76 61.7773C1221 62.9414 1226.67 64.1784 1232.79 65.4884C1239.26 66.8431 1245.65 68.5721 1251.97 70.6748C1258.66 72.7036 1264.78 75.5235 1270.31 79.1531C1276.13 82.8161 1280.78 87.7255 1284.24 93.8029C1288.04 100.059 1289.77 107.679 1289.77 116.36C1289.77 126.326 1286.89 135.576 1281.23 144.001C1275.61 152.42 1267.24 158.973 1256.48 163.813C1245.65 168.747 1232.27 171.08 1216.57 171.08C1203.55 171.08 1190.95 169.489 1178.78 166.296L1178.75 166.287ZM1254.41 159.26C1264.53 154.713 1272.08 148.7 1277.07 141.22C1282.2 133.593 1284.77 125.307 1284.77 116.36C1284.77 108.293 1283.16 101.62 1279.93 96.3399C1276.85 90.9133 1272.74 86.5866 1267.61 83.3599C1262.48 79.9866 1256.76 77.3466 1250.45 75.4399C1244.29 73.3866 1238.06 71.6999 1231.75 70.3799C1225.59 69.0599 1219.87 67.8133 1214.59 66.6399C1209.46 65.3199 1205.28 63.7066 1202.05 61.7999C1198.97 59.7466 1197.43 57.0333 1197.43 53.6599C1197.43 51.0199 1198.24 48.6733 1199.85 46.6199C1201.46 44.5666 1204.1 42.9533 1207.77 41.7799C1211.44 40.4599 1216.28 39.7999 1222.29 39.7999C1229.04 39.7999 1236 40.8266 1243.19 42.8799C1248.92 44.3989 1254.69 46.5696 1260.51 49.3918C1261.99 50.1121 1263.48 50.8748 1264.97 51.6799L1278.39 19.3399C1270.76 14.9399 1262.04 11.6399 1252.21 9.43993C1242.53 7.09326 1232.63 5.91992 1222.51 5.91992C1207.4 5.91992 1194.79 8.19326 1184.67 12.7399C1174.55 17.2866 1166.92 23.2999 1161.79 30.7799C1156.8 38.2599 1154.31 46.6199 1154.31 55.8599C1154.31 64.0733 1155.92 70.8933 1159.15 76.3199C1162.38 81.5999 1166.56 85.9266 1171.69 89.2999C1176.82 92.5266 1182.47 95.1666 1188.63 97.2199C1194.94 99.2733 1201.17 100.96 1207.33 102.28C1213.64 103.6 1219.36 104.92 1224.49 106.24C1229.62 107.56 1233.8 109.247 1237.03 111.3C1240.26 113.353 1241.87 116.14 1241.87 119.66C1241.87 122.153 1240.99 124.353 1239.23 126.26C1237.62 128.02 1234.98 129.487 1231.31 130.66C1227.64 131.687 1222.8 132.2 1216.79 132.2C1207.84 132.2 1198.82 130.807 1189.73 128.02C1182.6 125.682 1176.12 122.877 1170.29 119.607C1168.81 118.775 1167.37 117.912 1165.97 117.02L1151.67 149.14C1159 154.127 1168.46 158.233 1180.05 161.46C1191.78 164.54 1203.96 166.08 1216.57 166.08C1231.82 166.08 1244.44 163.807 1254.41 159.26ZM643.388 163H686.948V8.99992H643.388V163Z" fill="black"/>
</svg>
