<svg width="1281" height="172" viewBox="0 0 1281 172" fill="none" xmlns="http://www.w3.org/2000/svg">
<path fill-rule="evenodd" clip-rule="evenodd" d="M83.0081 168L87.8732 128.4H56.4187L51.497 168H25.8L30.7218 128.4H0.939941V102.34H33.9606L38.0223 69.6599H7.97994V43.5999H41.2612L46.1829 3.99992H71.8798L66.9581 43.5999H98.2915L103.157 3.99992H128.852L123.987 43.5999H153.72V69.6599H120.785L116.77 102.34H146.68V128.4H113.568L108.703 168H83.0081ZM109.145 123.4H141.68V107.34H111.118L116.362 64.6599H148.72V48.5999H118.335L123.2 8.99992H107.58L102.715 48.5999H61.2982L66.2199 8.99992H50.5999L45.6782 48.5999H12.9799V64.6599H43.6822L38.3777 107.34H5.93994V123.4H36.3817L31.4599 163H47.0799L52.0017 123.4H93.5251L88.66 163H104.28L109.145 123.4ZM95.4982 107.34L100.742 64.6599H59.3022L53.9977 107.34H95.4982ZM91.0749 102.34L95.0898 69.6599H63.7192L59.6576 102.34H91.0749ZM204.027 168V108.532L141.468 3.99992H199.107L232.716 60.3618L266.474 3.99992H320.352L257.587 109.212V168H204.027ZM252.587 107.834L311.547 8.99992H269.307L232.707 70.1085L196.267 8.99992H150.287L209.027 107.15V163H252.587V107.834ZM328.816 147.058L328.781 147.024C320.683 139.238 314.365 130.19 309.849 119.911C305.291 109.539 303.046 98.2121 303.046 85.9999C303.046 73.7877 305.291 62.4611 309.849 52.0886C314.369 41.8002 320.698 32.8119 328.817 25.161C337.088 17.3587 346.749 11.3695 357.749 7.18644C368.787 2.98888 380.763 0.919922 393.626 0.919922C406.622 0.919922 418.604 2.9844 429.513 7.18986C440.509 11.3728 450.102 17.3644 458.233 25.1777C466.337 32.8183 472.655 41.7919 477.172 52.0615C481.884 62.4395 484.206 73.7763 484.206 85.9999C484.206 98.2294 481.882 109.633 477.178 120.145C472.658 130.428 466.331 139.411 458.215 147.059C450.084 154.721 440.497 160.632 429.513 164.81C418.605 169.015 406.622 171.08 393.626 171.08C380.763 171.08 368.787 169.011 357.749 164.813C346.769 160.638 337.12 154.735 328.852 147.091L328.816 147.058ZM427.726 160.14C438.14 156.18 447.16 150.607 454.786 143.42C462.413 136.233 468.353 127.8 472.606 118.12C477.006 108.293 479.206 97.5866 479.206 85.9999C479.206 74.4133 477.006 63.7799 472.606 54.0999C468.353 44.4199 462.413 35.9866 454.786 28.7999C447.16 21.4666 438.14 15.8199 427.726 11.8599C417.46 7.89992 406.093 5.91992 393.626 5.91992C381.306 5.91992 369.94 7.89992 359.526 11.8599C349.113 15.8199 340.02 21.4666 332.246 28.7999C324.62 35.9866 318.68 44.4199 314.426 54.0999C310.173 63.7799 308.046 74.4133 308.046 85.9999C308.046 97.5866 310.173 108.22 314.426 117.9C318.68 127.58 324.62 136.087 332.246 143.42C340.02 150.607 349.113 156.18 359.526 160.14C369.94 164.1 381.306 166.08 393.626 166.08C406.093 166.08 417.46 164.1 427.726 160.14ZM408.026 122.287L408.049 122.278C412.554 120.476 416.35 117.933 419.502 114.654L419.505 114.652C422.823 111.206 425.403 107.1 427.23 102.27L427.251 102.216L427.273 102.161C429.202 97.4026 430.206 92.0375 430.206 85.9999C430.206 79.7968 429.196 74.4546 427.291 69.883L427.259 69.8067L427.23 69.7294C425.408 64.9146 422.846 60.9104 419.571 57.6355L419.503 57.5675L419.438 57.497C416.288 54.0949 412.511 51.507 408.049 49.7223L408.026 49.7129L408.003 49.7033C403.671 47.9197 398.898 46.9999 393.626 46.9999C388.365 46.9999 383.507 47.9163 379.006 49.7131C374.682 51.4975 370.865 54.1029 367.528 57.5681C364.356 60.868 361.758 64.9209 359.774 69.8044C357.992 74.4007 357.046 79.7722 357.046 85.9999C357.046 92.0545 357.983 97.4402 359.782 102.216C361.758 107.073 364.349 111.199 367.53 114.652C370.855 117.96 374.67 120.498 379.007 122.287C383.507 124.084 388.366 125 393.626 125C398.898 125 403.671 124.08 408.003 122.297L408.026 122.287ZM377.126 126.92C372.14 124.867 367.74 121.933 363.926 118.12C360.26 114.16 357.326 109.467 355.126 104.04C353.073 98.6133 352.046 92.5999 352.046 85.9999C352.046 79.2533 353.073 73.2399 355.126 67.9599C357.326 62.5333 360.26 57.9133 363.926 54.0999C367.74 50.1399 372.14 47.1333 377.126 45.0799C382.26 43.0266 387.76 41.9999 393.626 41.9999C399.493 41.9999 404.92 43.0266 409.906 45.0799C415.04 47.1333 419.44 50.1399 423.106 54.0999C426.92 57.9133 429.853 62.5333 431.906 67.9599C434.106 73.2399 435.206 79.2533 435.206 85.9999C435.206 92.5999 434.106 98.6133 431.906 104.04C429.853 109.467 426.92 114.16 423.106 118.12C419.44 121.933 415.04 124.867 409.906 126.92C404.92 128.973 399.493 130 393.626 130C387.76 130 382.26 128.973 377.126 126.92ZM495.701 3.99992H549.261V93.0399C549.261 105.794 551.779 113.71 555.659 118.054C559.83 122.558 565.582 125 573.521 125C581.479 125 587.13 122.549 591.14 118.08C595.033 113.742 597.561 105.82 597.561 93.0399V3.99992H650.461V94.3599C650.461 118.186 643.791 137.302 629.815 150.956C615.884 164.568 596.746 171.08 573.081 171.08C549.416 171.08 530.279 164.568 516.347 150.956C502.371 137.302 495.701 118.186 495.701 94.3599V3.99992ZM551.961 121.42C546.828 115.7 544.261 106.24 544.261 93.0399V8.99992H500.701V94.3599C500.701 117.24 507.081 134.913 519.841 147.38C532.601 159.847 550.348 166.08 573.081 166.08C595.814 166.08 613.561 159.847 626.321 147.38C639.081 134.913 645.461 117.24 645.461 94.3599V8.99992H602.561V93.0399C602.561 106.24 599.994 115.7 594.861 121.42C589.728 127.14 582.614 130 573.521 130C564.428 130 557.241 127.14 551.961 121.42ZM700.387 168V48.5399H653.087V3.99992H801.027V48.5399H753.947V168H700.387ZM748.947 43.5399H796.027V8.99992H658.087V43.5399H705.387V163H748.947V43.5399ZM803.572 3.99992H857.132V93.0399C857.132 105.794 859.65 113.71 863.53 118.054C867.701 122.558 873.453 125 881.392 125C889.35 125 895.001 122.549 899.011 118.08C902.904 113.742 905.432 105.82 905.432 93.0399V3.99992H958.332V94.3599C958.332 118.186 951.662 137.302 937.686 150.956C923.755 164.568 904.617 171.08 880.952 171.08C857.288 171.08 838.15 164.568 824.218 150.956C810.242 137.302 803.572 118.186 803.572 94.3599V3.99992ZM859.832 121.42C854.699 115.7 852.132 106.24 852.132 93.0399V8.99992H808.572V94.3599C808.572 117.24 814.952 134.913 827.712 147.38C840.472 159.847 858.219 166.08 880.952 166.08C903.685 166.08 921.432 159.847 934.192 147.38C946.952 134.913 953.332 117.24 953.332 94.3599V8.99992H910.432V93.0399C910.432 106.24 907.865 115.7 902.732 121.42C897.599 127.14 890.485 130 881.392 130C872.299 130 865.112 127.14 859.832 121.42ZM977.841 168V3.99992H1061.6C1082.29 3.99992 1098.67 7.79351 1109.9 16.2072C1121.1 24.4486 1126.88 35.5971 1126.88 49.2599C1126.88 58.1235 1124.48 66.1095 1119.6 73.0272C1117.3 76.3048 1114.55 79.2267 1111.37 81.8043C1117.59 85.1676 1122.71 89.6152 1126.6 95.1845C1131.86 102.333 1134.36 110.956 1134.36 120.76C1134.36 135.726 1128.15 147.69 1115.92 156.117L1115.91 156.121L1115.91 156.125C1104.01 164.275 1087.14 168 1066 168H977.841ZM1122.54 98.0999C1118.69 92.5854 1113.44 88.2483 1106.79 85.0886C1105.84 84.6348 1104.85 84.2052 1103.84 83.7999C1102.91 83.4103 1101.96 83.0431 1100.99 82.6985C1102.52 81.8738 1103.97 80.9951 1105.34 80.0626C1105.37 80.041 1105.4 80.0193 1105.43 79.9975C1105.72 79.7996 1106.01 79.5993 1106.29 79.3966C1109.98 76.7343 1113.05 73.6553 1115.5 70.1599C1119.75 64.1466 1121.88 57.1799 1121.88 49.2599C1121.88 37.2333 1116.89 27.5533 1106.92 20.2199C1096.95 12.7399 1081.84 8.99992 1061.6 8.99992H982.841V163H1066C1086.68 163 1102.37 159.333 1113.08 152C1123.93 144.52 1129.36 134.107 1129.36 120.76C1129.36 111.813 1127.09 104.26 1122.54 98.0999ZM1025.96 131.54H1062.48C1069.96 131.54 1075.61 130.293 1079.42 127.8C1083.38 125.16 1085.36 121.2 1085.36 115.92C1085.36 110.64 1083.38 106.753 1079.42 104.26C1075.61 101.62 1069.96 100.3 1062.48 100.3H1025.96V131.54ZM1025.96 70.1599H1055.88C1063.21 70.1599 1068.71 68.9133 1072.38 66.4199C1076.05 63.9266 1077.88 60.1866 1077.88 55.1999C1077.88 50.2133 1076.05 46.5466 1072.38 44.1999C1068.71 41.7066 1063.21 40.4599 1055.88 40.4599H1025.96V70.1599ZM1030.96 45.4599V65.1599H1055.88C1062.8 65.1599 1067.11 63.9547 1069.57 62.2853C1071.68 60.8506 1072.88 58.772 1072.88 55.1999C1072.88 51.6268 1071.69 49.6921 1069.69 48.4113L1069.63 48.3737L1069.57 48.3346C1067.11 46.6652 1062.8 45.4599 1055.88 45.4599H1030.96ZM1030.96 105.3V126.54H1062.48C1069.53 126.54 1074.03 125.342 1076.66 123.63C1079.05 122.031 1080.36 119.735 1080.36 115.92C1080.36 112.097 1079.06 109.938 1076.76 108.491L1076.67 108.433L1076.58 108.371C1073.97 106.566 1069.51 105.3 1062.48 105.3H1030.96ZM1195.04 68.6199H1263.46V101.18H1195.04V129.34H1275.56V163H1151.92V8.99992H1272.7V42.6599H1195.04V68.6199ZM1200.04 47.6599H1277.7V3.99992H1146.92V168H1280.56V124.34H1200.04V106.18H1268.46V63.6199H1200.04V47.6599Z" fill="black"/>
</svg>
