<svg width="1302" height="172" viewBox="0 0 1302 172" fill="none" xmlns="http://www.w3.org/2000/svg">
<path fill-rule="evenodd" clip-rule="evenodd" d="M83.0081 168L87.8732 128.4H56.4187L51.497 168H25.8L30.7218 128.4H0.939941V102.34H33.9606L38.0223 69.6599H7.97994V43.5999H41.2612L46.1829 3.99992H71.8798L66.9581 43.5999H98.2915L103.157 3.99992H128.852L123.987 43.5999H153.72V69.6599H120.785L116.77 102.34H146.68V128.4H113.568L108.703 168H83.0081ZM109.145 123.4H141.68V107.34H111.118L116.362 64.6599H148.72V48.5999H118.335L123.2 8.99992H107.58L102.715 48.5999H61.2982L66.2199 8.99992H50.5999L45.6782 48.5999H12.9799V64.6599H43.6822L38.3777 107.34H5.93994V123.4H36.3817L31.4599 163H47.0799L52.0017 123.4H93.5251L88.66 163H104.28L109.145 123.4ZM95.4982 107.34L100.742 64.6599H59.3022L53.9977 107.34H95.4982ZM91.0749 102.34L95.0898 69.6599H63.7192L59.6576 102.34H91.0749ZM165.087 168V3.99992H240.487C255.085 3.99992 267.914 6.35438 278.824 11.2536C289.887 16.1553 298.594 23.3593 304.741 32.8965C310.918 42.3334 313.907 53.434 313.907 65.9799C313.907 78.4005 310.908 89.4297 304.73 98.8601C298.584 108.24 289.893 115.426 278.866 120.467L278.851 120.474L278.837 120.481C267.924 125.384 255.09 127.74 240.487 127.74H218.647V168H165.087ZM213.647 122.74H240.487C254.567 122.74 266.667 120.467 276.787 115.92C287.054 111.227 294.974 104.627 300.547 96.1199C306.121 87.6133 308.907 77.5666 308.907 65.9799C308.907 54.2466 306.121 44.1266 300.547 35.6199C294.974 26.9666 287.054 20.3666 276.787 15.8199C266.667 11.2733 254.567 8.99992 240.487 8.99992H170.087V163H213.647V122.74ZM237.847 88.4199C246.941 88.4199 253.687 86.4399 258.087 82.4799C262.634 78.5199 264.907 73.0199 264.907 65.9799C264.907 58.7933 262.634 53.2199 258.087 49.2599C253.687 45.2999 246.941 43.3199 237.847 43.3199H213.647V88.4199H237.847ZM218.647 83.4199H237.847C246.344 83.4199 251.645 81.5517 254.743 78.7635L254.773 78.7362L254.804 78.7095C258.073 75.8618 259.907 71.8417 259.907 65.9799C259.907 59.9346 258.05 55.8576 254.804 53.0303L254.773 53.0036L254.743 52.9764C251.645 50.1882 246.344 48.3199 237.847 48.3199H218.647V83.4199ZM345.144 147.058L345.109 147.024C337.011 139.238 330.693 130.19 326.177 119.911C321.619 109.539 319.374 98.2121 319.374 85.9999C319.374 73.7877 321.619 62.4611 326.177 52.0886C330.698 41.8002 337.026 32.8119 345.145 25.161C353.416 17.3587 363.077 11.3695 374.077 7.18644C385.115 2.98888 397.091 0.919922 409.954 0.919922C422.95 0.919922 434.932 2.9844 445.841 7.18986C456.837 11.3728 466.43 17.3644 474.561 25.1777C482.665 32.8183 488.984 41.7919 493.5 52.0615C498.212 62.4395 500.534 73.7763 500.534 85.9999C500.534 98.2294 498.21 109.633 493.506 120.145C488.986 130.428 482.659 139.411 474.543 147.059C466.412 154.721 456.825 160.632 445.842 164.81C434.933 169.015 422.95 171.08 409.954 171.08C397.091 171.08 385.115 169.011 374.077 164.813C363.098 160.638 353.448 154.735 345.18 147.091L345.144 147.058ZM444.054 160.14C454.468 156.18 463.488 150.607 471.114 143.42C478.741 136.233 484.681 127.8 488.934 118.12C493.334 108.293 495.534 97.5866 495.534 85.9999C495.534 74.4133 493.334 63.7799 488.934 54.0999C484.681 44.4199 478.741 35.9866 471.114 28.7999C463.488 21.4666 454.468 15.8199 444.054 11.8599C433.788 7.89992 422.421 5.91992 409.954 5.91992C397.634 5.91992 386.268 7.89992 375.854 11.8599C365.441 15.8199 356.348 21.4666 348.574 28.7999C340.948 35.9866 335.008 44.4199 330.754 54.0999C326.501 63.7799 324.374 74.4133 324.374 85.9999C324.374 97.5866 326.501 108.22 330.754 117.9C335.008 127.58 340.948 136.087 348.574 143.42C356.348 150.607 365.441 156.18 375.854 160.14C386.268 164.1 397.634 166.08 409.954 166.08C422.421 166.08 433.788 164.1 444.054 160.14ZM424.354 122.287L424.378 122.278C428.882 120.476 432.678 117.933 435.83 114.654L435.833 114.652C439.151 111.206 441.731 107.1 443.558 102.27L443.579 102.216L443.601 102.161C445.53 97.4026 446.534 92.0375 446.534 85.9999C446.534 79.7968 445.524 74.4546 443.619 69.883L443.587 69.8067L443.558 69.7294C441.736 64.9146 439.174 60.9104 435.899 57.6355L435.831 57.5675L435.766 57.497C432.616 54.0949 428.839 51.507 424.378 49.7223L424.354 49.7129L424.331 49.7033C419.999 47.9197 415.226 46.9999 409.954 46.9999C404.694 46.9999 399.835 47.9163 395.335 49.7131C391.01 51.4975 387.193 54.1029 383.856 57.5681C380.684 60.868 378.086 64.9209 376.102 69.8044C374.32 74.4007 373.374 79.7722 373.374 85.9999C373.374 92.0545 374.312 97.4402 376.11 102.216C378.086 107.073 380.678 111.199 383.858 114.652C387.183 117.96 390.998 120.498 395.335 122.287C399.835 124.084 404.694 125 409.954 125C415.226 125 419.999 124.08 424.331 122.297L424.354 122.287ZM393.454 126.92C388.468 124.867 384.068 121.933 380.254 118.12C376.588 114.16 373.654 109.467 371.454 104.04C369.401 98.6133 368.374 92.5999 368.374 85.9999C368.374 79.2533 369.401 73.2399 371.454 67.9599C373.654 62.5333 376.588 57.9133 380.254 54.0999C384.068 50.1399 388.468 47.1333 393.454 45.0799C398.588 43.0266 404.088 41.9999 409.954 41.9999C415.821 41.9999 421.248 43.0266 426.234 45.0799C431.368 47.1333 435.768 50.1399 439.434 54.0999C443.248 57.9133 446.181 62.5333 448.234 67.9599C450.434 73.2399 451.534 79.2533 451.534 85.9999C451.534 92.5999 450.434 98.6133 448.234 104.04C446.181 109.467 443.248 114.16 439.434 118.12C435.768 121.933 431.368 124.867 426.234 126.92C421.248 128.973 415.821 130 409.954 130C404.088 130 398.588 128.973 393.454 126.92ZM513.349 168V3.99992H591.169C608.804 3.99992 624.539 7.27073 638.244 13.9676C651.925 20.6526 662.697 30.1305 670.41 42.4001C678.333 54.7676 682.189 69.3733 682.189 85.9999C682.189 102.498 678.325 117.093 670.417 129.589C662.703 141.864 651.929 151.345 638.244 158.032C624.539 164.729 608.804 168 591.169 168H513.349ZM666.189 126.92C673.522 115.333 677.189 101.693 677.189 85.9999C677.189 70.1599 673.522 56.5199 666.189 45.0799C659.003 33.6399 648.956 24.7666 636.049 18.4599C623.143 12.1533 608.182 8.99992 591.169 8.99992H518.349V163H591.169C608.182 163 623.143 159.847 636.049 153.54C648.956 147.233 659.003 138.36 666.189 126.92ZM610.033 53.2823L609.973 53.251C604.369 50.3216 597.569 48.7599 589.409 48.7599H566.909V123.24H589.409C597.591 123.24 604.414 121.743 610.033 118.938C615.776 115.998 620.181 111.836 623.353 106.391C626.511 100.823 628.189 94.0858 628.189 85.9999C628.189 77.7373 626.499 71.0212 623.367 65.633C620.201 60.1883 615.811 56.1071 610.093 53.3118L610.033 53.2823ZM627.689 108.88C624.022 115.187 618.889 120.027 612.289 123.4C605.836 126.627 598.209 128.24 589.409 128.24H561.909V43.7599H589.409C598.209 43.7599 605.836 45.4466 612.289 48.8199C618.889 52.0466 624.022 56.8133 627.689 63.1199C631.356 69.4266 633.189 77.0533 633.189 85.9999C633.189 94.7999 631.356 102.427 627.689 108.88ZM741.247 165.04L741.208 165.025C730.367 160.844 720.86 154.932 712.738 147.279L712.72 147.262L712.703 147.245C704.742 139.597 698.501 130.619 693.989 120.351L693.984 120.339L693.978 120.326C689.429 109.815 687.187 98.3505 687.187 85.9999C687.187 73.6577 689.426 62.2622 693.981 51.8867C698.489 41.474 704.731 32.4141 712.703 24.7544L712.72 24.7376L712.738 24.721C720.869 17.0593 730.39 11.2151 741.247 7.17973C752.274 2.98919 764.169 0.919922 776.887 0.919922C791.697 0.919922 805.093 3.51643 816.976 8.83032C828.982 14.1333 839.022 21.81 847.017 31.8439L849.944 35.5168L814.917 67.2076L811.577 63.2782C806.957 57.8427 801.96 53.8117 796.608 51.0701L796.585 51.0586L796.563 51.0469C791.487 48.3821 785.699 46.9999 779.087 46.9999C773.33 46.9999 768.16 47.9354 763.519 49.74C758.894 51.5387 754.963 54.1466 751.669 57.5681C748.501 60.863 745.907 64.9086 743.923 69.7822C742.124 74.5582 741.187 79.9445 741.187 85.9999C741.187 92.0554 742.124 97.4417 743.924 102.218C745.899 107.074 748.49 111.2 751.671 114.652C754.955 117.918 758.884 120.457 763.519 122.26C768.16 124.064 773.33 125 779.087 125C785.699 125 791.487 123.618 796.563 120.953L796.585 120.941L796.608 120.93C801.96 118.188 806.957 114.157 811.577 108.722L814.917 104.792L848.348 135.039L906.192 3.99992H955.605L1018.27 145.498L1034.21 109.68L1039.11 112.805C1045.59 116.941 1053.1 120.434 1061.69 123.254C1070.32 125.894 1078.84 127.2 1087.24 127.2C1092.97 127.2 1097.28 126.709 1100.32 125.869C1103.56 124.824 1105.23 123.713 1105.99 122.881L1106 122.875L1106.01 122.869C1106.95 121.844 1107.32 120.841 1107.32 119.66C1107.32 118.019 1106.73 116.749 1104.8 115.518C1102.15 113.833 1098.5 112.318 1093.69 111.082C1088.65 109.785 1083 108.482 1076.76 107.174L1076.74 107.171L1076.73 107.169C1070.39 105.811 1063.99 104.078 1057.53 101.974L1057.52 101.969L1057.5 101.963C1050.99 99.7926 1044.97 96.9868 1039.48 93.5331L1039.44 93.5062L1039.39 93.4785C1033.64 89.6969 1028.94 84.8319 1025.33 78.9272L1025.32 78.9013L1025.3 78.8753C1021.5 72.476 1019.76 64.7081 1019.76 55.8599C1019.76 45.6619 1022.53 36.3317 1028.08 28.0064L1028.1 27.9784L1028.12 27.9507C1033.87 19.5617 1042.3 13.018 1053.07 8.17908C1064.02 3.25829 1077.39 0.919922 1092.96 0.919922C1103.46 0.919922 1113.74 2.1355 1123.79 4.57013C1134.03 6.86516 1143.23 10.3292 1151.34 15.009L1153.67 16.3557V3.99992H1301.61V48.5399H1254.53V168H1200.97V48.5399H1153.67V20.7389L1137.92 58.7102L1133.04 56.0794C1126.02 52.2843 1119.12 49.5072 1112.36 47.7127L1112.31 47.7006L1112.27 47.6876C1105.48 45.7483 1098.98 44.7999 1092.74 44.7999C1087.03 44.7999 1082.83 45.4362 1079.91 46.4844L1079.83 46.5147L1079.74 46.5421C1076.6 47.5475 1075 48.7324 1074.23 49.709C1073.32 50.8709 1072.88 52.1268 1072.88 53.6599C1072.88 55.1485 1073.4 56.3591 1075.17 57.5676C1077.83 59.122 1081.47 60.5536 1086.21 61.7773C1091.45 62.9414 1097.12 64.1784 1103.24 65.4884C1109.71 66.8431 1116.1 68.5721 1122.42 70.6748C1129.1 72.7036 1135.23 75.5235 1140.76 79.1531C1146.57 82.8161 1151.23 87.7255 1154.69 93.8029C1158.49 100.059 1160.22 107.679 1160.22 116.36C1160.22 126.326 1157.34 135.576 1151.68 144.001C1146.06 152.42 1137.69 158.973 1126.93 163.813C1116.1 168.747 1102.72 171.08 1087.02 171.08C1074 171.08 1061.39 169.489 1049.23 166.296L1049.19 166.287L1049.16 166.277C1038.85 163.406 1029.98 159.808 1022.66 155.415L1028.23 168H971.85L959.842 138.08H901.299L889.292 168H833.798L845.062 142.484C837.408 151.251 828.039 158.141 817.016 163.152L817.002 163.158L816.989 163.164C805.102 168.482 791.702 171.08 776.887 171.08C764.184 171.08 752.303 169.089 741.288 165.055L741.247 165.04ZM897.918 133.08H963.223L975.231 163H1020.55L952.351 8.99992H909.451L841.471 163H885.911L897.918 133.08ZM930.571 51.719L910.809 100.96H950.332L930.571 51.719ZM942.938 95.9599L930.571 65.1435L918.203 95.9599H942.938ZM1124.86 159.26C1134.98 154.713 1142.53 148.7 1147.52 141.22C1152.65 133.593 1155.22 125.307 1155.22 116.36C1155.22 108.293 1153.61 101.62 1150.38 96.3399C1147.3 90.9133 1143.19 86.5866 1138.06 83.3599C1132.93 79.9866 1127.21 77.3466 1120.9 75.4399C1114.74 73.3866 1108.51 71.6999 1102.2 70.3799C1096.04 69.0599 1090.32 67.8133 1085.04 66.6399C1079.91 65.3199 1075.73 63.7066 1072.5 61.7999C1069.42 59.7466 1067.88 57.0333 1067.88 53.6599C1067.88 51.0199 1068.69 48.6733 1070.3 46.6199C1071.91 44.5666 1074.55 42.9533 1078.22 41.7799C1081.89 40.4599 1086.73 39.7999 1092.74 39.7999C1099.49 39.7999 1106.45 40.8266 1113.64 42.8799C1119.37 44.3989 1125.14 46.5696 1130.96 49.3918C1132.44 50.1121 1133.93 50.8748 1135.42 51.6799L1148.84 19.3399C1141.21 14.9399 1132.49 11.6399 1122.66 9.43993C1112.98 7.09326 1103.08 5.91992 1092.96 5.91992C1077.85 5.91992 1065.24 8.19326 1055.12 12.7399C1045 17.2866 1037.37 23.2999 1032.24 30.7799C1027.25 38.2599 1024.76 46.6199 1024.76 55.8599C1024.76 64.0733 1026.37 70.8933 1029.6 76.3199C1032.83 81.5999 1037.01 85.9266 1042.14 89.2999C1047.27 92.5266 1052.92 95.1666 1059.08 97.2199C1065.39 99.2733 1071.62 100.96 1077.78 102.28C1084.09 103.6 1089.81 104.92 1094.94 106.24C1100.07 107.56 1104.25 109.247 1107.48 111.3C1110.71 113.353 1112.32 116.14 1112.32 119.66C1112.32 122.153 1111.44 124.353 1109.68 126.26C1108.07 128.02 1105.43 129.487 1101.76 130.66C1098.09 131.687 1093.25 132.2 1087.24 132.2C1078.29 132.2 1069.27 130.807 1060.18 128.02C1053.05 125.682 1046.57 122.877 1040.74 119.607C1039.26 118.775 1037.82 117.912 1036.42 117.02L1022.12 149.14C1029.45 154.127 1038.91 158.233 1050.5 161.46C1062.23 164.54 1074.41 166.08 1087.02 166.08C1102.27 166.08 1114.89 163.807 1124.86 159.26ZM1205.97 43.5399V163H1249.53V43.5399H1296.61V8.99992H1158.67V43.5399H1205.97ZM748.067 118.12C744.4 114.16 741.467 109.467 739.267 104.04C737.214 98.6133 736.187 92.5999 736.187 85.9999C736.187 79.3999 737.214 73.3866 739.267 67.9599C741.467 62.5333 744.4 57.9133 748.067 54.0999C751.88 50.1399 756.427 47.1333 761.707 45.0799C766.987 43.0266 772.78 41.9999 779.087 41.9999C786.42 41.9999 793.02 43.5399 798.887 46.6199C803.811 49.1422 808.392 52.5989 812.628 56.99C813.564 57.961 814.484 58.9776 815.387 60.0399L843.107 34.9599C835.627 25.5733 826.24 18.3866 814.947 13.3999C803.8 8.41326 791.114 5.91992 776.887 5.91992C764.714 5.91992 753.42 7.89992 743.007 11.8599C732.74 15.6733 723.794 21.1733 716.167 28.3599C708.687 35.5466 702.82 44.0533 698.567 53.8799C694.314 63.5599 692.187 74.2666 692.187 85.9999C692.187 97.7333 694.314 108.513 698.567 118.34C702.82 128.02 708.687 136.453 716.167 143.64C723.794 150.827 732.74 156.4 743.007 160.36C753.42 164.173 764.714 166.08 776.887 166.08C791.114 166.08 803.8 163.587 814.947 158.6C826.24 153.467 835.627 146.28 843.107 137.04L815.387 111.96C814.484 113.022 813.564 114.039 812.628 115.01C808.392 119.401 803.811 122.858 798.887 125.38C793.02 128.46 786.42 130 779.087 130C772.78 130 766.987 128.973 761.707 126.92C756.427 124.867 751.88 121.933 748.067 118.12Z" fill="black"/>
</svg>
